<?xml version="1.0" encoding="UTF-8"?>
<svg xmlns="http://www.w3.org/2000/svg" xmlns:xlink="http://www.w3.org/1999/xlink" width="24px" height="24px" viewBox="0 0 24 24" version="1.1">
<g id="surface1">
<path style=" stroke:none;fill-rule:nonzero;fill:rgb(0%,0%,0%);fill-opacity:1;" d="M 22.992188 11.953125 C 23 10.746094 22.542969 9.292969 20.421875 8.902344 C 20.3125 8.695312 20.191406 8.484375 20.058594 8.269531 C 21.128906 6.792969 21.046875 5.421875 19.8125 4.1875 C 18.574219 2.949219 17.203125 2.867188 15.722656 3.941406 C 15.515625 3.808594 15.304688 3.6875 15.097656 3.582031 C 14.714844 1.46875 13.273438 1 12.070312 1 C 10.382812 1 9.300781 1.890625 8.984375 3.625 C 8.777344 3.734375 8.566406 3.855469 8.355469 3.988281 C 6.882812 2.921875 5.507812 3.015625 4.261719 4.257812 C 3.019531 5.503906 2.929688 6.878906 3.988281 8.351562 C 3.855469 8.5625 3.734375 8.773438 3.625 8.984375 C 1.894531 9.300781 1.015625 10.328125 1.007812 12.046875 C 1 13.253906 1.457031 14.707031 3.578125 15.097656 C 3.6875 15.304688 3.808594 15.515625 3.941406 15.730469 C 2.871094 17.207031 2.953125 18.578125 4.1875 19.8125 C 5.425781 21.050781 6.796875 21.132812 8.277344 20.058594 C 8.484375 20.191406 8.695312 20.3125 8.902344 20.417969 C 9.285156 22.53125 10.726562 23 11.929688 23 C 13.714844 23 14.699219 22.109375 15.015625 20.375 C 15.222656 20.265625 15.433594 20.144531 15.644531 20.011719 C 17.996094 21.78125 19.738281 19.742188 19.738281 19.742188 C 20.953125 18.59375 21.070312 17.121094 20.011719 15.648438 C 20.144531 15.4375 20.265625 15.226562 20.375 15.015625 C 22.105469 14.699219 22.984375 13.671875 22.992188 11.953125 Z M 14.460938 14.460938 C 13.644531 15.28125 12.867188 15.734375 11.792969 15.671875 C 10.777344 15.609375 10.019531 14.945312 9.539062 14.460938 C 7.902344 12.828125 7.902344 11.171875 9.539062 9.535156 C 10.421875 8.652344 11.292969 8.25 12.207031 8.328125 C 13.222656 8.40625 13.980469 9.054688 14.460938 9.539062 C 16.09375 11.171875 16.097656 12.828125 14.460938 14.464844 Z M 14.460938 14.460938 "/>
</g>
</svg>
