<?xml version="1.0" encoding="UTF-8"?>
<svg xmlns="http://www.w3.org/2000/svg" xmlns:xlink="http://www.w3.org/1999/xlink" width="24px" height="24px" viewBox="0 0 24 24" version="1.1">
<g id="surface1">
<path style=" stroke:none;fill-rule:nonzero;fill:rgb(0%,0%,0%);fill-opacity:1;" d="M 16.296875 8.289062 L 17.703125 9.714844 L 11.910156 15.421875 C 11.523438 15.808594 11.011719 16 10.503906 16 C 9.992188 16 9.476562 15.804688 9.085938 15.414062 L 6.304688 12.71875 L 7.695312 11.28125 L 10.488281 13.988281 L 16.300781 8.289062 Z M 24 12 C 24 18.617188 18.617188 24 12 24 C 5.382812 24 0 18.617188 0 12 C 0 5.382812 5.382812 0 12 0 C 18.617188 0 24 5.382812 24 12 Z M 22 12 C 22 6.484375 17.515625 2 12 2 C 6.484375 2 2 6.484375 2 12 C 2 17.515625 6.484375 22 12 22 C 17.515625 22 22 17.515625 22 12 Z M 22 12 "/>
</g>
</svg>
