<?xml version="1.0" encoding="UTF-8"?>
<svg xmlns="http://www.w3.org/2000/svg" xmlns:xlink="http://www.w3.org/1999/xlink" width="24px" height="24px" viewBox="0 0 24 24" version="1.1">
<g id="surface1">
<path style=" stroke:none;fill-rule:nonzero;fill:rgb(0%,0%,0%);fill-opacity:1;" d="M 12.207031 8.328125 C 11.292969 8.25 10.421875 8.652344 9.539062 9.535156 C 7.902344 11.171875 7.902344 12.828125 9.539062 14.460938 C 10.019531 14.945312 10.777344 15.605469 11.792969 15.671875 C 12.757812 15.734375 13.644531 15.28125 14.460938 14.460938 C 16.097656 12.828125 16.09375 11.171875 14.460938 9.535156 C 13.980469 9.054688 13.222656 8.40625 12.207031 8.328125 Z M 13.046875 13.050781 C 12.746094 13.351562 12.28125 13.703125 11.945312 13.679688 C 11.683594 13.65625 11.351562 13.445312 10.953125 13.050781 C 10.164062 12.261719 10.054688 11.847656 10.953125 10.949219 C 11.242188 10.660156 11.660156 10.320312 12.015625 10.320312 C 12.027344 10.320312 12.042969 10.320312 12.054688 10.320312 C 12.316406 10.34375 12.652344 10.554688 13.046875 10.949219 C 13.835938 11.738281 13.945312 12.152344 13.046875 13.050781 Z M 13.046875 13.050781 "/>
<path style=" stroke:none;fill-rule:nonzero;fill:rgb(0%,0%,0%);fill-opacity:1;" d="M 22.992188 11.953125 C 23 10.746094 22.542969 9.292969 20.421875 8.902344 C 20.3125 8.695312 20.191406 8.484375 20.058594 8.269531 C 21.128906 6.792969 21.046875 5.421875 19.8125 4.1875 C 18.574219 2.949219 17.203125 2.867188 15.722656 3.941406 C 15.515625 3.808594 15.304688 3.6875 15.097656 3.582031 C 14.714844 1.46875 13.273438 1 12.070312 1 C 10.378906 1 9.300781 1.890625 8.984375 3.625 C 8.777344 3.734375 8.566406 3.855469 8.355469 3.988281 C 6.882812 2.921875 5.507812 3.015625 4.261719 4.257812 C 3.019531 5.503906 2.929688 6.878906 3.988281 8.351562 C 3.855469 8.5625 3.734375 8.773438 3.625 8.984375 C 1.894531 9.300781 1.015625 10.328125 1.007812 12.046875 C 1 13.253906 1.457031 14.707031 3.578125 15.097656 C 3.6875 15.304688 3.808594 15.515625 3.941406 15.730469 C 2.871094 17.207031 2.953125 18.578125 4.1875 19.8125 C 5.425781 21.050781 6.796875 21.132812 8.277344 20.058594 C 8.484375 20.191406 8.695312 20.3125 8.902344 20.417969 C 9.285156 22.53125 10.726562 23 11.929688 23 C 13.652344 23 14.699219 22.109375 15.015625 20.375 C 15.222656 20.265625 15.433594 20.144531 15.644531 20.011719 C 17.117188 21.074219 18.484375 20.980469 19.738281 19.742188 C 20.988281 18.5 21.070312 17.121094 20.011719 15.648438 C 20.144531 15.4375 20.265625 15.226562 20.375 15.015625 C 22.105469 14.699219 22.984375 13.671875 22.992188 11.953125 Z M 19.625 13.101562 C 19.261719 13.132812 18.941406 13.359375 18.796875 13.695312 C 18.59375 14.148438 18.3125 14.628906 17.957031 15.113281 C 17.675781 15.496094 17.703125 16.03125 18.027344 16.382812 C 19.101562 17.546875 18.742188 17.910156 18.324219 18.328125 C 17.886719 18.761719 17.542969 19.105469 16.378906 18.03125 C 16.027344 17.707031 15.496094 17.675781 15.109375 17.960938 C 14.628906 18.3125 14.152344 18.59375 13.695312 18.792969 C 13.359375 18.941406 13.132812 19.257812 13.097656 19.625 C 12.980469 20.992188 12.5 20.996094 11.941406 21 C 11.378906 21 10.925781 21.003906 10.820312 19.671875 C 10.789062 19.300781 10.558594 18.976562 10.21875 18.832031 C 9.761719 18.636719 9.289062 18.359375 8.8125 18.007812 C 8.636719 17.875 8.425781 17.8125 8.21875 17.8125 C 7.972656 17.8125 7.730469 17.902344 7.539062 18.078125 C 6.359375 19.164062 6.007812 18.808594 5.601562 18.402344 C 5.191406 17.992188 4.839844 17.636719 5.921875 16.460938 C 6.246094 16.109375 6.277344 15.574219 5.992188 15.1875 C 5.636719 14.707031 5.355469 14.234375 5.160156 13.78125 C 5.015625 13.441406 4.691406 13.210938 4.320312 13.179688 C 2.996094 13.074219 3 12.625 3.003906 12.058594 C 3.003906 11.476562 3.007812 11.015625 4.371094 10.898438 C 4.734375 10.867188 5.054688 10.640625 5.199219 10.304688 C 5.402344 9.847656 5.683594 9.371094 6.039062 8.886719 C 6.320312 8.5 6.289062 7.96875 5.96875 7.617188 C 4.894531 6.453125 5.257812 6.089844 5.671875 5.671875 C 6.109375 5.238281 6.453125 4.894531 7.617188 5.96875 C 7.96875 6.292969 8.5 6.320312 8.886719 6.039062 C 9.367188 5.6875 9.84375 5.40625 10.300781 5.207031 C 10.636719 5.058594 10.863281 4.742188 10.898438 4.375 C 11.015625 3.003906 11.496094 3.003906 12.054688 3 C 12.628906 3.003906 13.070312 2.992188 13.175781 4.324219 C 13.203125 4.695312 13.4375 5.019531 13.777344 5.167969 C 14.234375 5.363281 14.707031 5.640625 15.183594 5.992188 C 15.570312 6.277344 16.101562 6.246094 16.453125 5.921875 C 17.632812 4.835938 17.984375 5.191406 18.394531 5.597656 C 18.804688 6.007812 19.15625 6.363281 18.070312 7.539062 C 17.746094 7.890625 17.71875 8.425781 18.003906 8.8125 C 18.359375 9.292969 18.636719 9.765625 18.832031 10.21875 C 18.980469 10.558594 19.304688 10.789062 19.671875 10.820312 C 20.996094 10.925781 20.996094 11.375 20.992188 11.941406 C 20.988281 12.523438 20.988281 12.984375 19.621094 13.101562 Z M 19.625 13.101562 "/>
</g>
</svg>
