<?xml version="1.0" encoding="UTF-8"?>
<svg xmlns="http://www.w3.org/2000/svg" xmlns:xlink="http://www.w3.org/1999/xlink" width="22px" height="22px" viewBox="0 0 22 22" version="1.1">
<g id="surface1">
<path style=" stroke:none;fill-rule:nonzero;fill:rgb(0%,0%,0%);fill-opacity:1;" d="M 5.5 12.832031 C 6.5 12.832031 7.316406 13.636719 7.332031 14.632812 C 7.351562 15.644531 8.074219 16.5 9.085938 16.5 L 12.914062 16.5 C 13.929688 16.5 14.648438 15.648438 14.667969 14.632812 C 14.683594 13.636719 15.5 12.832031 16.5 12.832031 L 22 12.832031 C 22 11.867188 21.917969 10.898438 21.75 9.945312 L 20.683594 3.796875 C 20.300781 1.601562 18.394531 0 16.167969 0 L 5.832031 0 C 3.605469 0 1.699219 1.601562 1.316406 3.796875 L 0.25 9.945312 C 0.0820312 10.898438 0 11.867188 0 12.832031 C 0 12.832031 5.5 12.832031 5.5 12.832031 Z M 4.804688 3.667969 L 17.199219 3.667969 C 17.640625 3.667969 18.019531 3.980469 18.101562 4.417969 C 18.203125 4.980469 17.773438 5.5 17.199219 5.5 L 4.804688 5.5 C 4.230469 5.5 3.796875 4.980469 3.902344 4.417969 C 3.984375 3.980469 4.363281 3.667969 4.804688 3.667969 Z M 4.125 7.332031 L 17.875 7.332031 C 18.316406 7.332031 18.695312 7.648438 18.777344 8.085938 C 18.878906 8.648438 18.445312 9.167969 17.875 9.167969 L 4.125 9.167969 C 3.550781 9.167969 3.121094 8.648438 3.222656 8.082031 C 3.304688 7.648438 3.683594 7.332031 4.125 7.332031 Z M 22 14.667969 L 22 17.417969 C 22 19.945312 19.945312 22 17.417969 22 L 4.582031 22 C 2.054688 22 0 19.945312 0 17.417969 L 0 14.667969 L 5.5 14.667969 C 5.5 16.6875 7.144531 18.332031 9.167969 18.332031 L 12.832031 18.332031 C 14.855469 18.332031 16.5 16.6875 16.5 14.667969 Z M 22 14.667969 "/>
</g>
</svg>
