<?xml version="1.0" encoding="UTF-8"?>
<svg xmlns="http://www.w3.org/2000/svg" xmlns:xlink="http://www.w3.org/1999/xlink" width="22px" height="22px" viewBox="0 0 22 22" version="1.1">
<g id="surface1">
<path style=" stroke:none;fill-rule:nonzero;fill:rgb(0%,0%,0%);fill-opacity:1;" d="M 21.851562 10.523438 L 20.152344 0.761719 C 20.066406 0.261719 19.59375 -0.0703125 19.09375 0.015625 C 18.59375 0.101562 18.257812 0.574219 18.347656 1.074219 L 20.042969 10.835938 C 20.054688 10.890625 20.058594 10.945312 20.066406 11 L 16.5 11 C 15.488281 11 14.664062 11.820312 14.664062 12.832031 C 14.664062 13.84375 13.84375 14.667969 12.832031 14.667969 L 9.164062 14.667969 C 8.15625 14.667969 7.332031 13.84375 7.332031 12.832031 C 7.332031 11.820312 6.511719 11 5.5 11 L 1.933594 11 C 1.941406 10.945312 1.945312 10.890625 1.953125 10.835938 L 3.652344 1.074219 C 3.738281 0.574219 3.40625 0.101562 2.90625 0.0117188 C 2.40625 -0.0742188 1.933594 0.261719 1.847656 0.757812 L 0.148438 10.523438 C 0.0742188 10.953125 0 12.15625 0 12.25 L 0 17.417969 C 0 19.945312 2.054688 22 4.582031 22 L 17.417969 22 C 19.945312 22 22 19.945312 22 17.417969 L 22 12.25 C 22 12.15625 21.925781 10.949219 21.851562 10.523438 Z M 17.417969 20.167969 L 4.582031 20.167969 C 3.066406 20.167969 1.832031 18.933594 1.832031 17.417969 L 1.832031 12.832031 L 5.5 12.832031 C 5.5 14.855469 7.144531 16.5 9.167969 16.5 L 12.832031 16.5 C 14.855469 16.5 16.5 14.855469 16.5 12.832031 L 20.167969 12.832031 L 20.167969 17.417969 C 20.167969 18.933594 18.933594 20.167969 17.417969 20.167969 Z M 5.703125 0.75 C 5.78125 0.316406 6.160156 0 6.601562 0 L 15.40625 0 C 15.847656 0 16.226562 0.316406 16.308594 0.75 C 16.410156 1.3125 15.980469 1.832031 15.40625 1.832031 L 6.605469 1.832031 C 6.03125 1.832031 5.597656 1.3125 5.703125 0.75 Z M 4.34375 8.082031 C 4.425781 7.648438 4.804688 7.332031 5.246094 7.332031 L 16.753906 7.332031 C 17.199219 7.332031 17.578125 7.648438 17.65625 8.085938 C 17.761719 8.648438 17.328125 9.167969 16.753906 9.167969 L 5.246094 9.167969 C 4.675781 9.167969 4.242188 8.648438 4.347656 8.082031 Z M 5.023438 4.417969 C 5.105469 3.980469 5.484375 3.667969 5.925781 3.667969 L 16.082031 3.667969 C 16.523438 3.667969 16.902344 3.980469 16.984375 4.417969 C 17.085938 4.980469 16.652344 5.5 16.082031 5.5 L 5.925781 5.5 C 5.351562 5.5 4.917969 4.980469 5.023438 4.417969 Z M 5.023438 4.417969 "/>
</g>
</svg>
